<svg xmlns="http://www.w3.org/2000/svg" viewBox="0 0 400 400" fill="none"><circle cx="200" cy="200" r="180" fill="#EBF5FC"/><circle cx="300" cy="100" r="50" fill="#D6E8F5" opacity="0.6"/><circle cx="80" cy="300" r="40" fill="#D6E8F5" opacity="0.4"/><g transform="translate(100, 100)"><rect x="0" y="0" width="120" height="160" rx="8" fill="white" stroke="#D6E8F5" stroke-width="2"/><rect x="15" y="20" width="90" height="8" rx="4" fill="#D6E8F5"/><rect x="15" y="40" width="70" height="8" rx="4" fill="#D6E8F5"/><rect x="15" y="60" width="80" height="8" rx="4" fill="#D6E8F5"/><circle cx="85" cy="130" r="25" fill="#1B8AC4"/><path d="M70 130 L80 140 L100 120" stroke="white" stroke-width="4" stroke-linecap="round" stroke-linejoin="round" fill="none"/></g><g transform="translate(240, 120)"><circle cx="50" cy="30" r="25" fill="#1B8AC4"/><path d="M50 60 C25 60 10 90 10 130 L90 130 C90 90 75 60 50 60" fill="#0A2E4A"/><path d="M85 80 Q110 50 100 30" stroke="#0A2E4A" stroke-width="6" stroke-linecap="round" fill="none"/><path d="M15 90 Q-10 110 5 130" stroke="#0A2E4A" stroke-width="6" stroke-linecap="round" fill="none"/></g><g transform="translate(280, 240)"><circle cx="20" cy="20" r="20" fill="#0A2E4A"/><path d="M20 10 V30 M10 20 H30" stroke="white" stroke-width="3" stroke-linecap="round"/></g><text x="200" y="380" text-anchor="middle" fill="#4A7A9B" font-size="14" font-family="sans-serif">Bergabung sekarang!</text></svg>
