<svg xmlns="http://www.w3.org/2000/svg" viewBox="0 0 400 400" fill="none"><circle cx="200" cy="200" r="180" fill="#EBF5FC"/><circle cx="320" cy="120" r="40" fill="#D6E8F5" opacity="0.5"/><circle cx="80" cy="320" r="50" fill="#D6E8F5" opacity="0.4"/><g transform="translate(130, 80)"><path d="M70 0 C30 0 0 20 0 50 C0 100 70 160 70 160 C70 160 140 100 140 50 C140 20 110 0 70 0" fill="#0A2E4A"/><path d="M70 15 C40 15 15 30 15 55 C15 95 70 145 70 145 C70 145 125 95 125 55 C125 30 100 15 70 15" fill="#EBF5FC"/><path d="M45 75 L60 95 L100 50" stroke="#1B8AC4" stroke-width="10" stroke-linecap="round" stroke-linejoin="round" fill="none"/></g><g transform="translate(250, 220)"><rect x="0" y="15" width="60" height="50" rx="8" fill="#1B8AC4"/><path d="M10 15 V5 C10 -10 50 -10 50 5 V15" stroke="#1B8AC4" stroke-width="5" stroke-linecap="round" fill="none"/><circle cx="55" cy="5" r="10" fill="#0A2E4A"/><path d="M55 -2 V12 M48 5 H62" stroke="white" stroke-width="2" stroke-linecap="round"/></g><g transform="translate(80, 150)"><circle cx="0" cy="0" r="8" fill="#1B8AC4" opacity="0.6"/><circle cx="30" cy="-20" r="5" fill="#1B8AC4" opacity="0.4"/><circle cx="-20" cy="20" r="6" fill="#1B8AC4" opacity="0.5"/></g><text x="200" y="380" text-anchor="middle" fill="#4A7A9B" font-size="14" font-family="sans-serif">Password berhasil!</text></svg>
