<svg xmlns="http://www.w3.org/2000/svg" viewBox="0 0 400 400" fill="none"><circle cx="200" cy="200" r="180" fill="#EBF5FC"/><circle cx="100" cy="120" r="35" fill="#D6E8F5" opacity="0.6"/><circle cx="320" cy="300" r="50" fill="#D6E8F5" opacity="0.4"/><g transform="translate(120, 80)"><rect x="0" y="20" width="160" height="110" rx="8" fill="#0A2E4A"/><path d="M0 28 L80 75 L160 28" stroke="#EBF5FC" stroke-width="3" fill="none"/><rect x="10" y="30" width="140" height="90" rx="4" fill="#EBF5FC"/><rect x="20" y="40" width="120" height="70" rx="4" fill="white"/></g><g transform="translate(100, 230)"><g><rect x="0" y="0" width="35" height="45" rx="6" fill="#1B8AC4"/><text x="17" y="32" text-anchor="middle" fill="white" font-size="22" font-family="sans-serif" font-weight="bold">6</text></g><g transform="translate(45, 0)"><rect x="0" y="0" width="35" height="45" rx="6" fill="#1B8AC4"/><text x="17" y="32" text-anchor="middle" fill="white" font-size="22" font-family="sans-serif" font-weight="bold">5</text></g><g transform="translate(90, 0)"><rect x="0" y="0" width="35" height="45" rx="6" fill="#1B8AC4"/><text x="17" y="32" text-anchor="middle" fill="white" font-size="22" font-family="sans-serif" font-weight="bold">8</text></g><g transform="translate(135, 0)"><rect x="0" y="0" width="35" height="45" rx="6" fill="#1B8AC4"/><text x="17" y="32" text-anchor="middle" fill="white" font-size="22" font-family="sans-serif" font-weight="bold">4</text></g></g><text x="200" y="380" text-anchor="middle" fill="#4A7A9B" font-size="14" font-family="sans-serif">Masukkan kode OTP</text></svg>
