<svg xmlns="http://www.w3.org/2000/svg" viewBox="0 0 400 400" fill="none"><circle cx="200" cy="200" r="180" fill="#EBF5FC"/><circle cx="100" cy="100" r="40" fill="#D6E8F5" opacity="0.6"/><circle cx="320" cy="280" r="60" fill="#D6E8F5" opacity="0.4"/><g transform="translate(120, 80)"><circle cx="80" cy="50" r="35" fill="#1B8AC4"/><path d="M80 90 C40 90 20 130 20 180 L140 180 C140 130 120 90 80 90" fill="#0A2E4A"/><path d="M25 130 Q-10 160 10 200" stroke="#0A2E4A" stroke-width="8" stroke-linecap="round" fill="none"/><path d="M135 130 Q170 160 150 200" stroke="#0A2E4A" stroke-width="8" stroke-linecap="round" fill="none"/></g><g transform="translate(220, 220)"><rect x="0" y="30" width="60" height="50" rx="8" fill="#0A2E4A"/><path d="M10 30 V20 C10 5 20 0 30 0 C40 0 50 5 50 20 V30" stroke="#0A2E4A" stroke-width="6" fill="none"/><circle cx="30" cy="55" r="8" fill="#EBF5FC"/><rect x="27" y="55" width="6" height="15" fill="#EBF5FC"/></g><text x="200" y="380" text-anchor="middle" fill="#4A7A9B" font-size="14" font-family="sans-serif">Selamat datang!</text></svg>
